<svg width="106" height="21" viewBox="0 0 106 21" fill="none" xmlns="http://www.w3.org/2000/svg">
<path d="M20.7585 15V6.27273H26.6392V7.79403H22.6037V9.87358H26.3366V11.3949H22.6037V13.4787H26.6562V15H20.7585ZM29.8363 6.27273L31.5962 9.24716H31.6644L33.4329 6.27273H35.5167L32.8533 10.6364L35.5763 15H33.4542L31.6644 12.0213H31.5962L29.8065 15H27.6928L30.4244 10.6364L27.744 6.27273H29.8363ZM36.6843 15V6.27273H42.565V7.79403H38.5295V9.87358H42.2624V11.3949H38.5295V13.4787H42.582V15H36.6843ZM44.032 15V6.27273H45.8771V13.4787H49.6186V15H44.032ZM58.5206 10.6364C58.5206 11.5881 58.3402 12.3977 57.9794 13.0653C57.6214 13.733 57.1328 14.2429 56.5135 14.5952C55.897 14.9446 55.2038 15.1193 54.4339 15.1193C53.6584 15.1193 52.9624 14.9432 52.3459 14.5909C51.7294 14.2386 51.2422 13.7287 50.8842 13.0611C50.5263 12.3935 50.3473 11.5852 50.3473 10.6364C50.3473 9.68466 50.5263 8.875 50.8842 8.20739C51.2422 7.53977 51.7294 7.03125 52.3459 6.68182C52.9624 6.32955 53.6584 6.15341 54.4339 6.15341C55.2038 6.15341 55.897 6.32955 56.5135 6.68182C57.1328 7.03125 57.6214 7.53977 57.9794 8.20739C58.3402 8.875 58.5206 9.68466 58.5206 10.6364ZM56.6499 10.6364C56.6499 10.0199 56.5575 9.5 56.3729 9.0767C56.1911 8.65341 55.9339 8.33239 55.6016 8.11364C55.2692 7.89489 54.88 7.78551 54.4339 7.78551C53.9879 7.78551 53.5987 7.89489 53.2663 8.11364C52.9339 8.33239 52.6754 8.65341 52.4908 9.0767C52.3089 9.5 52.218 10.0199 52.218 10.6364C52.218 11.2528 52.3089 11.7727 52.4908 12.196C52.6754 12.6193 52.9339 12.9403 53.2663 13.1591C53.5987 13.3778 53.9879 13.4872 54.4339 13.4872C54.88 13.4872 55.2692 13.3778 55.6016 13.1591C55.9339 12.9403 56.1911 12.6193 56.3729 12.196C56.5575 11.7727 56.6499 11.2528 56.6499 10.6364Z" fill="white"/>
<path d="M64.6218 8.78267C64.5877 8.43892 64.4414 8.17187 64.1829 7.98153C63.9244 7.79119 63.5735 7.69602 63.1303 7.69602C62.8292 7.69602 62.5749 7.73864 62.3675 7.82386C62.1602 7.90625 62.0011 8.02131 61.8903 8.16903C61.7823 8.31676 61.7283 8.48438 61.7283 8.67188C61.7227 8.82812 61.7553 8.96449 61.8263 9.08097C61.9002 9.19744 62.0011 9.2983 62.1289 9.38352C62.2567 9.46591 62.4045 9.53835 62.5721 9.60085C62.7397 9.66051 62.9187 9.71165 63.109 9.75426L63.8931 9.94176C64.2738 10.027 64.6232 10.1406 64.9414 10.2827C65.2596 10.4247 65.5352 10.5994 65.7681 10.8068C66.0011 11.0142 66.1815 11.2585 66.3093 11.5398C66.44 11.821 66.5067 12.1435 66.5096 12.5071C66.5067 13.0412 66.3704 13.5043 66.1005 13.8963C65.8335 14.2855 65.4471 14.5881 64.9414 14.804C64.4386 15.017 63.832 15.1236 63.1218 15.1236C62.4173 15.1236 61.8036 15.0156 61.2809 14.7997C60.761 14.5838 60.3548 14.2642 60.0621 13.8409C59.7724 13.4148 59.6204 12.8878 59.6062 12.2599H61.3917C61.4116 12.5526 61.4954 12.7969 61.6431 12.9929C61.7937 13.1861 61.994 13.3324 62.244 13.4318C62.4968 13.5284 62.7823 13.5767 63.1005 13.5767C63.413 13.5767 63.6843 13.5312 63.9144 13.4403C64.1474 13.3494 64.3278 13.223 64.4556 13.0611C64.5835 12.8991 64.6474 12.7131 64.6474 12.5028C64.6474 12.3068 64.5891 12.142 64.4727 12.0085C64.359 11.875 64.1914 11.7614 63.9698 11.6676C63.7511 11.5739 63.4826 11.4886 63.1644 11.4119L62.2141 11.1733C61.4783 10.9943 60.8974 10.7145 60.4712 10.3338C60.0451 9.95312 59.8335 9.44034 59.8363 8.79545C59.8335 8.26705 59.9741 7.8054 60.2582 7.41051C60.5451 7.01562 60.9386 6.70739 61.4386 6.4858C61.9386 6.2642 62.5067 6.15341 63.1431 6.15341C63.7908 6.15341 64.3562 6.2642 64.8391 6.4858C65.3249 6.70739 65.7028 7.01562 65.9727 7.41051C66.2425 7.8054 66.3817 8.26278 66.3903 8.78267H64.6218ZM67.7507 15V6.27273H73.6314V7.79403H69.5959V9.87358H73.3288V11.3949H69.5959V13.4787H73.6484V15H67.7507ZM75.0984 15V6.27273H78.5415C79.2006 6.27273 79.7631 6.39062 80.229 6.62642C80.6978 6.85937 81.0543 7.19034 81.2987 7.61932C81.5458 8.04545 81.6694 8.54687 81.6694 9.12358C81.6694 9.70312 81.5444 10.2017 81.2944 10.6193C81.0444 11.0341 80.6822 11.3523 80.2077 11.5739C79.7362 11.7955 79.1651 11.9062 78.4947 11.9062H76.1893V10.4233H78.1964C78.5487 10.4233 78.8413 10.375 79.0742 10.2784C79.3072 10.1818 79.4805 10.0369 79.5941 9.84375C79.7106 9.65057 79.7688 9.41051 79.7688 9.12358C79.7688 8.83381 79.7106 8.58949 79.5941 8.39062C79.4805 8.19176 79.3058 8.04119 79.07 7.93892C78.837 7.83381 78.543 7.78125 78.1879 7.78125H76.9435V15H75.0984ZM79.8114 11.0284L81.9805 15H79.9435L77.8214 11.0284H79.8114ZM84.9379 15L82.4407 6.27273H84.4563L85.9009 12.3366H85.9734L87.5671 6.27273H89.293L90.8825 12.3494H90.9592L92.4038 6.27273H94.4194L91.9222 15H90.1239L88.462 9.29403H88.3938L86.7362 15H84.9379ZM97.2521 6.27273V15H95.407V6.27273H97.2521ZM103.505 8.78267C103.471 8.43892 103.324 8.17187 103.066 7.98153C102.807 7.79119 102.456 7.69602 102.013 7.69602C101.712 7.69602 101.458 7.73864 101.25 7.82386C101.043 7.90625 100.884 8.02131 100.773 8.16903C100.665 8.31676 100.611 8.48438 100.611 8.67188C100.605 8.82812 100.638 8.96449 100.709 9.08097C100.783 9.19744 100.884 9.2983 101.012 9.38352C101.14 9.46591 101.287 9.53835 101.455 9.60085C101.623 9.66051 101.801 9.71165 101.992 9.75426L102.776 9.94176C103.157 10.027 103.506 10.1406 103.824 10.2827C104.142 10.4247 104.418 10.5994 104.651 10.8068C104.884 11.0142 105.064 11.2585 105.192 11.5398C105.323 11.821 105.39 12.1435 105.392 12.5071C105.39 13.0412 105.253 13.5043 104.983 13.8963C104.716 14.2855 104.33 14.5881 103.824 14.804C103.321 15.017 102.715 15.1236 102.005 15.1236C101.3 15.1236 100.686 15.0156 100.164 14.7997C99.6438 14.5838 99.2376 14.2642 98.945 13.8409C98.6552 13.4148 98.5032 12.8878 98.489 12.2599H100.275C100.294 12.5526 100.378 12.7969 100.526 12.9929C100.676 13.1861 100.877 13.3324 101.127 13.4318C101.38 13.5284 101.665 13.5767 101.983 13.5767C102.296 13.5767 102.567 13.5312 102.797 13.4403C103.03 13.3494 103.211 13.223 103.338 13.0611C103.466 12.8991 103.53 12.7131 103.53 12.5028C103.53 12.3068 103.472 12.142 103.355 12.0085C103.242 11.875 103.074 11.7614 102.853 11.6676C102.634 11.5739 102.365 11.4886 102.047 11.4119L101.097 11.1733C100.361 10.9943 99.7802 10.7145 99.354 10.3338C98.9279 9.95312 98.7163 9.44034 98.7191 8.79545C98.7163 8.26705 98.8569 7.8054 99.141 7.41051C99.4279 7.01562 99.8214 6.70739 100.321 6.4858C100.821 6.2642 101.39 6.15341 102.026 6.15341C102.674 6.15341 103.239 6.2642 103.722 6.4858C104.208 6.70739 104.586 7.01562 104.855 7.41051C105.125 7.8054 105.265 8.26278 105.273 8.78267H103.505Z" fill="#FD9331"/>
<path fill-rule="evenodd" clip-rule="evenodd" d="M1.49295 2.88828C0.579896 4.78676 0 7.44796 0 10.4167C0 13.3854 0.579896 16.0466 1.49295 17.945C2.43074 19.895 3.60547 20.8333 4.6875 20.8333C5.76953 20.8333 6.94425 19.895 7.88208 17.945C8.7951 16.0466 9.375 13.3854 9.375 10.4167C9.375 7.44796 8.7951 4.78676 7.88208 2.88828C6.94425 0.938344 5.76953 0 4.6875 0C3.60547 0 2.43074 0.938344 1.49295 2.88828ZM2.92969 10.4167C2.92969 14.0501 3.71669 16.9956 4.6875 16.9956C5.5839 16.9956 6.32358 14.4844 6.43171 11.2391H5.27344C4.78803 11.2391 4.39453 10.8708 4.39453 10.4167C4.39453 9.9625 4.78803 9.59427 5.27344 9.59427H6.43171C6.32358 6.34898 5.5839 3.83772 4.6875 3.83772C3.71669 3.83772 2.92969 6.78322 2.92969 10.4167Z" fill="#FD9331"/>
<path opacity="0.5" d="M7.19458 17.945C6.25676 19.895 5.08203 20.8333 4 20.8333H13.2411C15.904 20.8333 18.0626 16.1696 18.0626 10.4167C18.0626 4.6637 15.904 0 13.2411 0H4C5.08203 0 6.25676 0.938344 7.19458 2.88828C8.1076 4.78676 8.6875 7.44796 8.6875 10.4167C8.6875 13.3854 8.1076 16.0466 7.19458 17.945Z" fill="#FD9331"/>
</svg>
