<svg width="19" height="21" viewBox="0 0 19 21" fill="none" xmlns="http://www.w3.org/2000/svg">
<path fill-rule="evenodd" clip-rule="evenodd" d="M1.49295 2.88828C0.579896 4.78676 0 7.44796 0 10.4167C0 13.3854 0.579896 16.0466 1.49295 17.945C2.43074 19.895 3.60547 20.8333 4.6875 20.8333C5.76953 20.8333 6.94425 19.895 7.88208 17.945C8.7951 16.0466 9.375 13.3854 9.375 10.4167C9.375 7.44796 8.7951 4.78676 7.88208 2.88828C6.94425 0.938344 5.76953 0 4.6875 0C3.60547 0 2.43074 0.938344 1.49295 2.88828ZM2.92969 10.4167C2.92969 14.0501 3.71669 16.9956 4.6875 16.9956C5.5839 16.9956 6.32358 14.4844 6.43171 11.2391H5.27344C4.78803 11.2391 4.39453 10.8708 4.39453 10.4167C4.39453 9.9625 4.78803 9.59427 5.27344 9.59427H6.43171C6.32358 6.34898 5.5839 3.83772 4.6875 3.83772C3.71669 3.83772 2.92969 6.78322 2.92969 10.4167Z" fill="#FD9331"/>
<path opacity="0.5" d="M7.19458 17.945C6.25676 19.895 5.08203 20.8333 4 20.8333H13.2411C15.904 20.8333 18.0626 16.1696 18.0626 10.4167C18.0626 4.6637 15.904 0 13.2411 0H4C5.08203 0 6.25676 0.938344 7.19458 2.88828C8.1076 4.78676 8.6875 7.44796 8.6875 10.4167C8.6875 13.3854 8.1076 16.0466 7.19458 17.945Z" fill="#FD9331"/>
</svg>
